<?xml version="1.0" ?><svg data-name="Layer 2" id="Layer_2" viewBox="0 0 2010 2010" xmlns="http://www.w3.org/2000/svg" xmlns:xlink="http://www.w3.org/1999/xlink"><defs><style>.cls-1{fill:url(#linear-gradient);}.cls-2{fill:url(#linear-gradient-2);}</style><linearGradient gradientUnits="userSpaceOnUse" id="linear-gradient" x1="461.01" x2="1548.99" y1="1005" y2="1005"><stop offset="0" stop-color="#69bbff"/><stop offset="1" stop-color="#9de0f4"/></linearGradient><linearGradient gradientUnits="userSpaceOnUse" id="linear-gradient-2" x1="1041.97" x2="651.53" y1="1013.54" y2="1634.45"><stop offset="0" stop-color="#69bbff"/><stop offset="1" stop-color="#1798ff"/></linearGradient></defs><path class="cls-1" d="M1005,1719.48c-100.24,0-197.63-25.22-281.65-72.92-80.19-45.53-147-110.51-193.14-187.91-42-70.45-65.84-149.85-68.86-229.6A468.51,468.51,0,0,1,473.27,1105a494.06,494.06,0,0,1,46.66-122.46l321-594.46a184.66,184.66,0,0,1,163.38-97.54h.14a184.68,184.68,0,0,1,163.39,97.31l321.88,594.08a493.68,493.68,0,0,1,46.87,122.49,469.11,469.11,0,0,1,12.07,124.14c-2.94,79.81-26.69,159.28-68.7,229.81-46.14,77.47-112.93,142.52-193.16,188.12C1202.77,1694.23,1105.32,1719.48,1005,1719.48Z"/><path class="cls-2" d="M957.6,1540.67c-78.5-.14-147.39-17.42-204.76-51.36-47.62-28.16-86.56-67.22-115.74-116.1a382.2,382.2,0,0,1-32.78-70.71c-16.34-47.18,16.94-96.88,66.79-99.58h0A74.83,74.83,0,0,1,746,1253.13a229.14,229.14,0,0,0,22.38,47.25c16.38,26,37.69,46.67,63.33,61.29,33.76,19.24,76.45,29,126.89,29a75,75,0,0,1,75,74.78C1033.72,1506.84,999,1540.75,957.6,1540.67Z"/></svg>