<?xml version="1.0" ?><svg data-name="Layer 2" id="Layer_2" viewBox="0 0 2010 2010" xmlns="http://www.w3.org/2000/svg" xmlns:xlink="http://www.w3.org/1999/xlink"><defs><style>.cls-1{fill:url(#linear-gradient);}.cls-2{fill:url(#linear-gradient-2);}.cls-3{fill:url(#linear-gradient-3);}</style><linearGradient gradientUnits="userSpaceOnUse" id="linear-gradient" x1="619.15" x2="1819.47" y1="1363.8" y2="118.04"><stop offset="0" stop-color="#69bbff"/><stop offset="1" stop-color="#9de0f4"/></linearGradient><linearGradient gradientUnits="userSpaceOnUse" id="linear-gradient-2" x1="1061.06" x2="352.98" y1="597.08" y2="1479.34"><stop offset="0" stop-color="#69bbff"/><stop offset="1" stop-color="#1798ff"/></linearGradient><linearGradient id="linear-gradient-3" x1="1578.2" x2="870.12" xlink:href="#linear-gradient-2" y1="1012.12" y2="1894.38"/></defs><path class="cls-1" d="M1396.17,1140.68H912.67a361.18,361.18,0,1,1,0-722.36,364.16,364.16,0,0,1,47.7,3.12,491.79,491.79,0,1,1,435.8,719.24Z"/><path class="cls-2" d="M953.35,1364.64H326.53c-112.64,0-204.28-91.64-204.28-204.28s91.64-204.29,204.28-204.29a204.46,204.46,0,0,1,153.19,69.13,75,75,0,0,1-112.46,99.27,53.65,53.65,0,0,0-40.73-18.4,54.29,54.29,0,0,0,0,108.57H953.35a75,75,0,0,1,0,150Z"/><path class="cls-3" d="M835.79,1852.5c-112.64,0-204.29-91.65-204.29-204.29s91.65-204.28,204.29-204.28H1569a75,75,0,0,1,0,150H835.79a54.29,54.29,0,1,0,0,108.57,53.66,53.66,0,0,0,40.73-18.4A75,75,0,1,1,989,1783.37,204.43,204.43,0,0,1,835.79,1852.5Z"/></svg>